<svg width="17" height="21" viewBox="0 0 17 21" fill="none" xmlns="http://www.w3.org/2000/svg">
<path d="M14.7501 4.25H12.6667C12.6667 1.94791 10.8022 0.0833282 8.50008 0.0833282C6.198 0.0833282 4.33341 1.94791 4.33341 4.25H2.25008C1.10425 4.25 0.166748 5.1875 0.166748 6.33333V18.8333C0.166748 19.9792 1.10425 20.9167 2.25008 20.9167H14.7501C15.8959 20.9167 16.8334 19.9792 16.8334 18.8333V6.33333C16.8334 5.1875 15.8959 4.25 14.7501 4.25ZM8.50008 2.16666C9.64591 2.16666 10.5834 3.10416 10.5834 4.25H6.41675C6.41675 3.10416 7.35425 2.16666 8.50008 2.16666ZM14.7501 18.8333H2.25008V6.33333H4.33341V8.41666C4.33341 8.98958 4.80216 9.45833 5.37508 9.45833C5.948 9.45833 6.41675 8.98958 6.41675 8.41666V6.33333H10.5834V8.41666C10.5834 8.98958 11.0522 9.45833 11.6251 9.45833C12.198 9.45833 12.6667 8.98958 12.6667 8.41666V6.33333H14.7501V18.8333Z" fill="black"/>
</svg>
