<svg width="30" height="30" viewBox="0 0 30 30" fill="none" xmlns="http://www.w3.org/2000/svg">
<circle cx="15" cy="15" r="14.5" fill="white" stroke="#E9E9E9"/>
<path d="M22.47 14.0701H16.17H14.07H7.76997C7.49149 14.0701 7.22442 14.1807 7.02751 14.3776C6.8306 14.5745 6.71997 14.8416 6.71997 15.1201C6.71997 15.3985 6.8306 15.6656 7.02751 15.8625C7.22442 16.0594 7.49149 16.1701 7.76997 16.1701H14.07H16.17H22.47C22.7484 16.1701 23.0155 16.0594 23.2124 15.8625C23.4093 15.6656 23.52 15.3985 23.52 15.1201C23.52 14.8416 23.4093 14.5745 23.2124 14.3776C23.0155 14.1807 22.7484 14.0701 22.47 14.0701Z" fill="#E9E9E9"/>
</svg>
