<svg width="30" height="30" viewBox="0 0 30 30" fill="none" xmlns="http://www.w3.org/2000/svg">
<circle cx="15" cy="15" r="14.5" fill="white" stroke="#FFC300"/>
<path d="M22.47 14.07H16.17V7.76997C16.17 7.49149 16.0593 7.22442 15.8624 7.02751C15.6655 6.8306 15.3984 6.71997 15.12 6.71997C14.8415 6.71997 14.5744 6.8306 14.3775 7.02751C14.1806 7.22442 14.07 7.49149 14.07 7.76997V14.07H7.76997C7.49149 14.07 7.22442 14.1806 7.02751 14.3775C6.8306 14.5744 6.71997 14.8415 6.71997 15.12C6.71997 15.3984 6.8306 15.6655 7.02751 15.8624C7.22442 16.0593 7.49149 16.17 7.76997 16.17H14.07V22.47C14.07 22.7484 14.1806 23.0155 14.3775 23.2124C14.5744 23.4093 14.8415 23.52 15.12 23.52C15.3984 23.52 15.6655 23.4093 15.8624 23.2124C16.0593 23.0155 16.17 22.7484 16.17 22.47V16.17H22.47C22.7484 16.17 23.0155 16.0593 23.2124 15.8624C23.4093 15.6655 23.52 15.3984 23.52 15.12C23.52 14.8415 23.4093 14.5744 23.2124 14.3775C23.0155 14.1806 22.7484 14.07 22.47 14.07Z" fill="#FFC300"/>
</svg>
