<svg width="100" height="95" viewBox="0 0 100 95" fill="none" xmlns="http://www.w3.org/2000/svg">
<path d="M90 20H79.1C79.65 18.45 80 16.75 80 15C80 6.7 73.3 0 65 0C59.75 0 55.2 2.7 52.5 6.75L50 10.1L47.5 6.7C44.8 2.7 40.25 0 35 0C26.7 0 20 6.7 20 15C20 16.75 20.35 18.45 20.9 20H10C4.45 20 0.05 24.45 0.05 30L0 85C0 90.55 4.45 95 10 95H90C95.55 95 100 90.55 100 85V30C100 24.45 95.55 20 90 20ZM65 10C67.75 10 70 12.25 70 15C70 17.75 67.75 20 65 20C62.25 20 60 17.75 60 15C60 12.25 62.25 10 65 10ZM35 10C37.75 10 40 12.25 40 15C40 17.75 37.75 20 35 20C32.25 20 30 17.75 30 15C30 12.25 32.25 10 35 10ZM90 85H10V75H90V85ZM90 60H10V30H35.4L25 44.15L33.1 50L45 33.8L50 27L55 33.8L66.9 50L75 44.15L64.6 30H90V60Z" fill="#FFC300"/>
</svg>
