<svg width="29" height="34" viewBox="0 0 29 34" fill="none" xmlns="http://www.w3.org/2000/svg">
<path d="M18.0767 21.8571C24.505 21.8571 29 17.3447 29 10.8581C29 4.37143 24.505 0 18.0767 0H5.73958C5.23911 0 4.83333 0.407772 4.83333 0.910714V3.01143V16.5926H0.90625C0.405773 16.5926 0 17.0004 0 17.5033V20.9464C0 21.4494 0.405773 21.8571 0.90625 21.8571H4.83333V24.2857H0.90625C0.405773 24.2857 0 24.6935 0 25.1964V28.2321C0 28.7351 0.405773 29.1429 0.90625 29.1429H4.83333V33.0893C4.83333 33.5922 5.23911 34 5.73958 34H10.1621C10.6626 34 11.0683 33.5922 11.0683 33.0893V29.1429H23.2604C23.7609 29.1429 24.1667 28.7351 24.1667 28.2321V25.1964C24.1667 24.6935 23.7609 24.2857 23.2604 24.2857H11.0683V21.8571H18.0767ZM11.0683 5.21748H17.0133C20.5417 5.21748 22.6683 7.42672 22.6683 10.8581C22.6683 14.3364 20.5417 16.5926 16.9167 16.5926H11.0683V5.21748Z" fill="#FFC300"/>
</svg>
