<svg width="15" height="19" viewBox="0 0 15 19" fill="none" xmlns="http://www.w3.org/2000/svg">
<path d="M9.35 12.0714C12.675 12.0714 15 9.68249 15 6.24839C15 2.81429 12.675 0.5 9.35 0.5H2.96875C2.70988 0.5 2.5 0.715879 2.5 0.982143V2.09429V9.28432H0.46875C0.209883 9.28432 0 9.5002 0 9.76646V11.5893C0 11.8555 0.209883 12.0714 0.46875 12.0714H2.5V13.3571H0.46875C0.209883 13.3571 0 13.573 0 13.8393V15.4464C0 15.7127 0.209883 15.9286 0.46875 15.9286H2.5V18.0179C2.5 18.2841 2.70988 18.5 2.96875 18.5H5.25625C5.51512 18.5 5.725 18.2841 5.725 18.0179V15.9286H12.0312C12.2901 15.9286 12.5 15.7127 12.5 15.4464V13.8393C12.5 13.573 12.2901 13.3571 12.0312 13.3571H5.725V12.0714H9.35ZM5.725 3.2622H8.8C10.625 3.2622 11.725 4.43179 11.725 6.24839C11.725 8.08985 10.625 9.28432 8.75 9.28432H5.725V3.2622Z" fill="#FFC300"/>
</svg>
