<svg width="21" height="21" viewBox="0 0 21 21" fill="none" xmlns="http://www.w3.org/2000/svg">
<path d="M15.1978 11.5416C15.979 11.5416 16.6665 11.1146 17.0207 10.4687L20.7498 3.70831C21.1353 3.02081 20.6353 2.16665 19.8436 2.16665H4.42692L3.44775 0.083313H0.0415039V2.16665H2.12484L5.87484 10.0729L4.46859 12.6146C3.70817 14.0104 4.70817 15.7083 6.2915 15.7083H18.7915V13.625H6.2915L7.43734 11.5416H15.1978ZM5.4165 4.24998H18.0728L15.1978 9.45831H7.88525L5.4165 4.24998ZM6.2915 16.75C5.14567 16.75 4.21859 17.6875 4.21859 18.8333C4.21859 19.9791 5.14567 20.9166 6.2915 20.9166C7.43734 20.9166 8.37484 19.9791 8.37484 18.8333C8.37484 17.6875 7.43734 16.75 6.2915 16.75ZM16.7082 16.75C15.5623 16.75 14.6353 17.6875 14.6353 18.8333C14.6353 19.9791 15.5623 20.9166 16.7082 20.9166C17.854 20.9166 18.7915 19.9791 18.7915 18.8333C18.7915 17.6875 17.854 16.75 16.7082 16.75Z" fill="black"/>
</svg>
