<svg width="40" height="40" viewBox="0 0 40 40" fill="none" xmlns="http://www.w3.org/2000/svg">
<path d="M20 0C8.96 0 0 8.96 0 20C0 31.04 8.96 40 20 40C31.04 40 40 31.04 40 20C40 8.96 31.04 0 20 0ZM20 31.84C13.46 31.84 8.16 26.54 8.16 20C8.16 13.46 13.46 8.16 20 8.16C26.54 8.16 31.84 13.46 31.84 20C31.84 26.54 26.54 31.84 20 31.84ZM20 9.62C14.28 9.62 9.62 14.28 9.62 20C9.62 25.72 14.28 30.38 20 30.38C25.72 30.38 30.38 25.72 30.38 20C30.38 14.28 25.72 9.62 20 9.62ZM16.14 25.9V14.1L26.36 20L16.14 25.9Z" fill="#E9E9E9"/>
</svg>
